<svg width="100" height="100" viewBox="0 0 24 24" fill="none" xmlns="http://www.w3.org/2000/svg">
    <!--
      这是一个根据您提供的图片创作的SVG图标。
      - 主体是一个带有猫耳的紫色聊天气泡。
      - 内部是白色的双引号，代表引用或对话。
      - fill: 填充颜色，我们使用了近似的紫色 #7F58D6。
    -->

    <!-- 紫色主体：带有耳朵的聊天气泡 -->
    <path fill-rule="evenodd" clip-rule="evenodd" d="M19.102 3.23868C20.6628 4.07593 21.4883 5.90509 21.2504 7.69153C22.9533 8.35824 24 9.99963 24 11.8443C24 14.3332 22.0121 16.4028 19.5695 16.7563C19.1839 19.3323 16.9254 21.3443 14.25 21.3443H9.75C6.08867 21.3443 3.12558 18.2618 3.25732 14.6043C1.31952 13.914 0 12.1328 0 10.1557C0 7.64751 2.22749 5.65567 4.84792 5.65567C5.23434 3.07971 7.49289 1.06665 10.1683 1.06665C12.4433 1.06665 14.4357 2.45783 15.2223 4.45567C15.9322 2.92408 17.5412 2.40142 19.102 3.23868Z" fill="#7F58D6"/>

    <!-- 白色引号 (左) -->
    <path d="M11.2336 10.5111C11.2336 11.5667 10.3891 12.4222 9.34468 12.4222C8.30024 12.4222 7.45581 11.5667 7.45581 10.5111C7.45581 9.45556 8.30024 8.6 9.34468 8.6C10.3891 8.6 11.2336 9.45556 11.2336 10.5111Z" fill="white"/>
    <path d="M11.2336 14.2667C11.2336 15.3222 10.3891 16.1778 9.34468 16.1778C8.30024 16.1778 7.45581 15.3222 7.45581 14.2667H11.2336Z" fill="white"/>

    <!-- 白色引号 (右) -->
    <path d="M16.5442 10.5111C16.5442 11.5667 15.7 12.4222 14.6556 12.4222C13.6111 12.4222 12.7667 11.5667 12.7667 10.5111C12.7667 9.45556 13.6111 8.6 14.6556 8.6C15.7 8.6 16.5442 9.45556 16.5442 10.5111Z" fill="white"/>
    <path d="M16.5442 14.2667C16.5442 15.3222 15.7 16.1778 14.6556 16.1778C13.6111 16.1778 12.7667 15.3222 12.7667 14.2667H16.5442Z" fill="white"/>
</svg>
